<?xml version="1.0" encoding="utf-8"?>
<!-- Generator: Adobe Illustrator 27.5.0, SVG Export Plug-In . SVG Version: 6.00 Build 0)  -->
<svg version="1.1" xmlns="http://www.w3.org/2000/svg" xmlns:xlink="http://www.w3.org/1999/xlink" x="0px" y="0px"
	 viewBox="0 0 500 500" style="enable-background:new 0 0 500 500;" xml:space="preserve">
<g id="Background_Complete">
	<g>
		<g>
			<rect y="382.4" style="fill:#EBEBEB;" width="500" height="0.25"/>
			<rect x="150.04" y="388.78" style="fill:#EBEBEB;" width="23.18" height="0.25"/>
			<rect x="402.1" y="394.14" style="fill:#EBEBEB;" width="56.67" height="0.25"/>
			<rect x="42.72" y="394.14" style="fill:#EBEBEB;" width="56.67" height="0.25"/>
			<path style="fill:#EBEBEB;" d="M237,337.8H43.91c-3.15-0.005-5.7-2.56-5.7-5.71V60.66c0.027-3.13,2.57-5.655,5.7-5.66H237
				c3.153,0,5.71,2.556,5.71,5.71l0,0v271.38C242.71,335.243,240.153,337.8,237,337.8z M43.91,55.2
				c-3.012,0.006-5.45,2.448-5.45,5.46v271.43c0,3.012,2.438,5.454,5.45,5.46H237c3.013-0.005,5.454-2.447,5.46-5.46V60.66
				c-0.006-3.013-2.447-5.454-5.46-5.46H43.91z"/>
			<path style="fill:#EBEBEB;" d="M453.31,337.8h-193.1c-3.151-0.005-5.704-2.559-5.71-5.71V60.66
				c0.033-3.132,2.578-5.655,5.71-5.66h193.1c3.126,0.011,5.663,2.534,5.69,5.66v271.43C459,335.236,456.456,337.789,453.31,337.8z
				 M260.21,55.2c-3.013,0.006-5.454,2.447-5.46,5.46v271.43c0.005,3.013,2.447,5.454,5.46,5.46h193.1
				c3.013-0.005,5.454-2.447,5.46-5.46V60.66c-0.005-3.013-2.447-5.454-5.46-5.46H260.21z"/>
		</g>
		<g>
			<path style="fill:#F5F5F5;" d="M98.698,130.406h83.273c3.524,0,6.38,2.857,6.38,6.381v245.387l0,0H92.351l0,0V136.775
				C92.358,133.269,95.192,130.425,98.698,130.406z"/>
			<rect x="100.296" y="145.283" style="fill:#EBEBEB;" width="12.378" height="27.559"/>
			<rect x="167.995" y="145.283" style="fill:#EBEBEB;" width="12.378" height="27.559"/>
			<rect x="122.859" y="145.283" style="fill:#EBEBEB;" width="12.378" height="27.559"/>
			<rect x="145.433" y="145.283" style="fill:#EBEBEB;" width="12.378" height="27.559"/>
			<rect x="100.296" y="188.788" style="fill:#EBEBEB;" width="12.378" height="27.559"/>
			<rect x="167.995" y="188.788" style="fill:#EBEBEB;" width="12.378" height="27.559"/>
			<rect x="122.859" y="188.788" style="fill:#EBEBEB;" width="12.378" height="27.559"/>
			<rect x="145.433" y="188.788" style="fill:#EBEBEB;" width="12.378" height="27.559"/>
			<rect x="100.296" y="232.292" style="fill:#EBEBEB;" width="12.378" height="27.559"/>
			<rect x="167.995" y="232.292" style="fill:#EBEBEB;" width="12.378" height="27.559"/>
			<rect x="122.859" y="232.292" style="fill:#EBEBEB;" width="12.378" height="27.559"/>
			<rect x="145.433" y="232.292" style="fill:#EBEBEB;" width="12.378" height="27.559"/>
			<rect x="100.296" y="275.797" style="fill:#EBEBEB;" width="12.378" height="27.559"/>
			<rect x="167.995" y="275.797" style="fill:#EBEBEB;" width="12.378" height="27.559"/>
			<rect x="122.859" y="275.797" style="fill:#EBEBEB;" width="12.378" height="27.559"/>
			<rect x="145.433" y="275.797" style="fill:#EBEBEB;" width="12.378" height="27.559"/>
			<rect x="100.296" y="319.302" style="fill:#EBEBEB;" width="12.378" height="27.559"/>
			<rect x="167.995" y="319.302" style="fill:#EBEBEB;" width="12.378" height="27.559"/>
			<rect x="122.859" y="319.302" style="fill:#EBEBEB;" width="12.378" height="27.559"/>
			<rect x="145.433" y="319.302" style="fill:#EBEBEB;" width="12.378" height="27.559"/>
			<path style="fill:#F5F5F5;" d="M393.936,153.284h59.642c2.865,0,5.188,2.323,5.188,5.188v223.702l0,0h-69.961l0,0v-223.69
				C388.799,155.635,391.089,153.315,393.936,153.284z"/>
			<rect x="397.672" y="166.81" style="fill:#EBEBEB;" width="11.253" height="25.05"/>
			<rect x="418.187" y="166.81" style="fill:#EBEBEB;" width="11.253" height="25.05"/>
			<rect x="438.701" y="166.81" style="fill:#EBEBEB;" width="11.253" height="25.05"/>
			<rect x="397.672" y="206.365" style="fill:#EBEBEB;" width="11.253" height="25.05"/>
			<rect x="418.187" y="206.365" style="fill:#EBEBEB;" width="11.253" height="25.05"/>
			<rect x="438.701" y="206.365" style="fill:#EBEBEB;" width="11.253" height="25.05"/>
			<rect x="397.672" y="245.92" style="fill:#EBEBEB;" width="11.253" height="25.05"/>
			<rect x="418.187" y="245.92" style="fill:#EBEBEB;" width="11.253" height="25.05"/>
			<rect x="438.701" y="245.92" style="fill:#EBEBEB;" width="11.253" height="25.05"/>
			<rect x="397.672" y="285.463" style="fill:#EBEBEB;" width="11.253" height="25.05"/>
			<rect x="418.187" y="285.463" style="fill:#EBEBEB;" width="11.253" height="25.05"/>
			<rect x="438.701" y="285.463" style="fill:#EBEBEB;" width="11.253" height="25.05"/>
			<rect x="397.672" y="325.018" style="fill:#EBEBEB;" width="11.253" height="25.05"/>
			<rect x="418.187" y="325.018" style="fill:#EBEBEB;" width="11.253" height="25.05"/>
			<rect x="438.701" y="325.018" style="fill:#EBEBEB;" width="11.253" height="25.05"/>
			<path style="fill:#F5F5F5;" d="M257.312,89.264h96.879c4.096,0,7.416,3.32,7.416,7.416v285.493l0,0h-111.71l0,0V96.68
				C249.896,92.585,253.216,89.264,257.312,89.264z"/>
			<rect x="259.168" y="106.572" style="fill:#EBEBEB;" width="14.404" height="32.06"/>
			<rect x="337.929" y="106.572" style="fill:#EBEBEB;" width="14.404" height="32.06"/>
			<rect x="285.422" y="106.572" style="fill:#EBEBEB;" width="14.404" height="32.06"/>
			<rect x="311.676" y="106.572" style="fill:#EBEBEB;" width="14.404" height="32.06"/>
			<rect x="259.168" y="157.189" style="fill:#EBEBEB;" width="14.404" height="32.06"/>
			<rect x="337.929" y="157.189" style="fill:#EBEBEB;" width="14.404" height="32.06"/>
			<rect x="285.422" y="157.189" style="fill:#EBEBEB;" width="14.404" height="32.06"/>
			<rect x="311.676" y="157.189" style="fill:#EBEBEB;" width="14.404" height="32.06"/>
			<rect x="259.168" y="207.805" style="fill:#EBEBEB;" width="14.404" height="32.06"/>
			<rect x="337.929" y="207.805" style="fill:#EBEBEB;" width="14.404" height="32.06"/>
			<rect x="285.422" y="207.805" style="fill:#EBEBEB;" width="14.404" height="32.06"/>
			<rect x="311.676" y="207.805" style="fill:#EBEBEB;" width="14.404" height="32.06"/>
			<rect x="259.168" y="258.422" style="fill:#EBEBEB;" width="14.404" height="32.06"/>
			<rect x="337.929" y="258.422" style="fill:#EBEBEB;" width="14.404" height="32.06"/>
			<rect x="285.422" y="258.422" style="fill:#EBEBEB;" width="14.404" height="32.06"/>
			<rect x="311.676" y="258.422" style="fill:#EBEBEB;" width="14.404" height="32.06"/>
			<rect x="259.168" y="309.028" style="fill:#EBEBEB;" width="14.404" height="32.06"/>
			<rect x="337.929" y="309.028" style="fill:#EBEBEB;" width="14.404" height="32.06"/>
			<rect x="285.422" y="309.028" style="fill:#EBEBEB;" width="14.404" height="32.06"/>
			<rect x="311.676" y="309.028" style="fill:#EBEBEB;" width="14.404" height="32.06"/>
			<rect x="188.352" y="194.167" style="fill:#E6E6E6;" width="61.544" height="188.007"/>
			<rect x="361.617" y="214.298" style="fill:#E6E6E6;" width="27.188" height="167.875"/>
			<polygon style="fill:#E6E6E6;" points="92.318,382.173 38.46,382.173 38.46,303.682 92.318,285.463 			"/>
		</g>
	</g>
</g>
<g id="Background_Simple" style="display:none;">
	<g style="display:inline;">
		<path style="fill:#407BFF;" d="M245.726,154.51c39.543-19.244,70.903-62.295,121.569-54.067
			c38.04,6.179,58.333,40.665,64.463,78.274c16.117,98.738-106.167,166.895-188.614,174.373
			c-85.411,7.801-205.11-36.734-191.895-137.548c5.463-41.547,37.833-61.797,80.84-66.44
			C168.569,145.151,214.713,169.609,245.726,154.51z"/>
		<path style="opacity:0.9;fill:#FFFFFF;enable-background:new    ;" d="M245.726,154.51
			c39.543-19.244,70.903-62.295,121.569-54.067c38.04,6.179,58.333,40.665,64.463,78.274
			c16.117,98.738-106.167,166.895-188.614,174.373c-85.411,7.801-205.11-36.734-191.895-137.548
			c5.463-41.547,37.833-61.797,80.84-66.44C168.569,145.151,214.713,169.609,245.726,154.51z"/>
	</g>
</g>
<g id="Shadow">
	<g id="Shadow--inject-62">
		<ellipse id="path--inject-62" style="fill:#F5F5F5;" cx="250" cy="411.666" rx="193.89" ry="15.894"/>
	</g>
</g>
<g id="Truck">
	<g>
		<path d="M287.682,348.924h-16.993c-8.851,0-16.023,12.83-16.023,28.655c0,15.825,7.173,28.648,16.023,28.648h16.993
			c8.851,0,16.023-12.823,16.023-28.648C303.705,361.754,296.532,348.924,287.682,348.924z"/>
		<g>
			<rect x="137.701" y="164.701" style="fill:#407BFF;" width="297.694" height="190.152"/>
			<rect x="233.631" y="164.701" style="opacity:0.3;fill:#263238;enable-background:new    ;" width="201.764" height="190.456"/>
			<rect x="137.701" y="164.701" style="opacity:0.2;fill:#FFFFFF;enable-background:new    ;" width="95.93" height="194.106"/>
			<g>
				
					<line style="opacity:0.1;fill:none;stroke:#FFFFFF;stroke-width:2;stroke-linecap:round;stroke-linejoin:round;stroke-miterlimit:10;" x1="138.416" y1="173.544" x2="435.395" y2="173.544"/>
				
					<line style="opacity:0.1;fill:none;stroke:#FFFFFF;stroke-width:2;stroke-linecap:round;stroke-linejoin:round;stroke-miterlimit:10;" x1="138.416" y1="181.767" x2="435.395" y2="181.767"/>
				
					<line style="opacity:0.1;fill:none;stroke:#FFFFFF;stroke-width:2;stroke-linecap:round;stroke-linejoin:round;stroke-miterlimit:10;" x1="138.416" y1="189.99" x2="435.395" y2="189.99"/>
				
					<line style="opacity:0.1;fill:none;stroke:#FFFFFF;stroke-width:2;stroke-linecap:round;stroke-linejoin:round;stroke-miterlimit:10;" x1="138.416" y1="198.213" x2="435.395" y2="198.213"/>
				
					<line style="opacity:0.1;fill:none;stroke:#FFFFFF;stroke-width:2;stroke-linecap:round;stroke-linejoin:round;stroke-miterlimit:10;" x1="138.416" y1="206.436" x2="435.395" y2="206.436"/>
				
					<line style="opacity:0.1;fill:none;stroke:#FFFFFF;stroke-width:2;stroke-linecap:round;stroke-linejoin:round;stroke-miterlimit:10;" x1="138.416" y1="214.659" x2="435.395" y2="214.659"/>
				
					<line style="opacity:0.1;fill:none;stroke:#FFFFFF;stroke-width:2;stroke-linecap:round;stroke-linejoin:round;stroke-miterlimit:10;" x1="138.416" y1="222.882" x2="435.395" y2="222.882"/>
				
					<line style="opacity:0.1;fill:none;stroke:#FFFFFF;stroke-width:2;stroke-linecap:round;stroke-linejoin:round;stroke-miterlimit:10;" x1="138.416" y1="231.105" x2="435.395" y2="231.105"/>
				
					<line style="opacity:0.1;fill:none;stroke:#FFFFFF;stroke-width:2;stroke-linecap:round;stroke-linejoin:round;stroke-miterlimit:10;" x1="138.416" y1="239.327" x2="435.395" y2="239.327"/>
				
					<line style="opacity:0.1;fill:none;stroke:#FFFFFF;stroke-width:2;stroke-linecap:round;stroke-linejoin:round;stroke-miterlimit:10;" x1="138.416" y1="247.55" x2="435.395" y2="247.55"/>
				
					<line style="opacity:0.1;fill:none;stroke:#FFFFFF;stroke-width:2;stroke-linecap:round;stroke-linejoin:round;stroke-miterlimit:10;" x1="138.416" y1="255.773" x2="435.395" y2="255.773"/>
				
					<line style="opacity:0.1;fill:none;stroke:#FFFFFF;stroke-width:2;stroke-linecap:round;stroke-linejoin:round;stroke-miterlimit:10;" x1="138.416" y1="263.996" x2="435.395" y2="263.996"/>
				
					<line style="opacity:0.1;fill:none;stroke:#FFFFFF;stroke-width:2;stroke-linecap:round;stroke-linejoin:round;stroke-miterlimit:10;" x1="138.416" y1="272.219" x2="435.395" y2="272.219"/>
				
					<line style="opacity:0.1;fill:none;stroke:#FFFFFF;stroke-width:2;stroke-linecap:round;stroke-linejoin:round;stroke-miterlimit:10;" x1="138.416" y1="280.442" x2="435.395" y2="280.442"/>
				
					<line style="opacity:0.1;fill:none;stroke:#FFFFFF;stroke-width:2;stroke-linecap:round;stroke-linejoin:round;stroke-miterlimit:10;" x1="138.416" y1="288.665" x2="435.395" y2="288.665"/>
				
					<line style="opacity:0.1;fill:none;stroke:#FFFFFF;stroke-width:2;stroke-linecap:round;stroke-linejoin:round;stroke-miterlimit:10;" x1="138.416" y1="296.888" x2="435.395" y2="296.888"/>
				
					<line style="opacity:0.1;fill:none;stroke:#FFFFFF;stroke-width:2;stroke-linecap:round;stroke-linejoin:round;stroke-miterlimit:10;" x1="138.416" y1="305.111" x2="435.395" y2="305.111"/>
				
					<line style="opacity:0.1;fill:none;stroke:#FFFFFF;stroke-width:2;stroke-linecap:round;stroke-linejoin:round;stroke-miterlimit:10;" x1="138.416" y1="313.334" x2="435.395" y2="313.334"/>
				
					<line style="opacity:0.1;fill:none;stroke:#FFFFFF;stroke-width:2;stroke-linecap:round;stroke-linejoin:round;stroke-miterlimit:10;" x1="138.416" y1="321.556" x2="435.395" y2="321.556"/>
				
					<line style="opacity:0.1;fill:none;stroke:#FFFFFF;stroke-width:2;stroke-linecap:round;stroke-linejoin:round;stroke-miterlimit:10;" x1="138.416" y1="329.779" x2="435.395" y2="329.779"/>
				
					<line style="opacity:0.1;fill:none;stroke:#FFFFFF;stroke-width:2;stroke-linecap:round;stroke-linejoin:round;stroke-miterlimit:10;" x1="138.416" y1="338.002" x2="435.395" y2="338.002"/>
				
					<line style="opacity:0.1;fill:none;stroke:#FFFFFF;stroke-width:2;stroke-linecap:round;stroke-linejoin:round;stroke-miterlimit:10;" x1="138.416" y1="346.225" x2="435.395" y2="346.225"/>
			</g>
		</g>
		<path d="M83.075,352.656H67.336c-8.197,0-14.84,11.882-14.84,26.539s6.643,26.532,14.84,26.532h15.738
			c8.197,0,14.84-11.876,14.84-26.532S91.272,352.656,83.075,352.656z"/>
		<path style="fill:#263238;" d="M74.321,300.835h-7.443c-1.453,0.045-2.657-1.519-2.69-3.493c-0.003-0.208,0.007-0.417,0.03-0.623
			l2.029-22.471c0.249-2.308,1.683-4.04,3.399-4.106h7.451c1.453-0.038,2.653,1.531,2.682,3.504
			c0.003,0.201-0.007,0.403-0.029,0.602l-2.029,22.471C77.476,299.033,76.04,300.772,74.321,300.835z"/>
		<path style="fill:#407BFF;" d="M81.761,226.614L67.41,304.028l156.226,61.177l-1.088-152.526l-34.361-1.039H94.068
			C88.414,211.634,83.421,217.71,81.761,226.614z"/>
		<path style="fill:#407BFF;" d="M198.035,239.063c-5.824-0.259-11.058,4.517-12.763,11.645l-11.821,49.52h-22.794l-1.239,65.328
			h74.834"/>
		<path style="fill:#263238;" d="M84.03,296.068c-2.286,0-4.139-2.936-4.139-6.558c0-0.638,0.059-1.273,0.174-1.885l8.596-45.431
			c0.718-3.777,2.918-6.356,5.407-6.341h82.181c0.893-0.004,1.618,1.139,1.621,2.554c0,0.256-0.023,0.51-0.07,0.755
			c-1.805,9.362-7.654,40.365-9.886,52.231c-0.528,2.777-2.142,4.677-3.972,4.675H84.03z"/>
		<path style="fill:#407BFF;" d="M159.624,316.209c0,0.798-0.06,1.596-0.174,2.383l-0.429,2.931l-0.25,1.732l-1.846,12.632
			l-2.996,20.557l-0.83,5.711H36.805l0.022-5.711l0.081-20.557l0.049-12.289l0.011-2.714l0.011-2.291
			c-0.966-6.606,2.193-13.022,7.051-14.33c0.575-0.158,1.162-0.234,1.748-0.234h104.879
			C155.607,304.028,159.624,309.478,159.624,316.209z"/>
		<g>
			<path style="fill:#263238;" d="M218.728,242.01v48.705c0,2.958-1.511,5.358-3.377,5.365h-28.418
				c-1.869,0-3.385-2.401-3.385-5.364c0-0.485,0.042-0.969,0.124-1.436l8.762-49.796c0.416-2.39,1.814-4.012,3.377-3.917
				l19.656,1.08C217.287,236.751,218.729,239.122,218.728,242.01z"/>
		</g>
		<polygon style="opacity:0.1;fill:#FFFFFF;enable-background:new    ;" points="131.937,235.854 116.238,235.854 98.214,296.068 
			113.919,296.068 		"/>
		<polygon style="opacity:0.1;fill:#FFFFFF;enable-background:new    ;" points="144.156,235.854 136.655,235.854 118.637,296.068 
			126.132,296.068 		"/>
		<polygon points="189.746,335.886 189.746,356.443 36.827,356.443 36.909,335.886 		"/>
		<polygon style="fill:#FFFFFF;" points="168.447,335.886 154.307,335.886 128.881,350.832 128.881,356.443 189.746,356.443 
			189.746,335.886 		"/>
		<polygon style="fill:#FFFFFF;" points="63.192,350.83 63.192,356.443 36.827,356.443 36.909,335.886 37.766,335.886 		"/>
		<path style="opacity:0.3;fill:#263238;enable-background:new    ;" d="M223.706,365.557l-1.159-152.879l-21.04-1.029
			c-5.234-0.257-11.283,5.827-12.815,12.89l-15.187,79.489h-5.928c-6.657,0-11.217,4.854-11.208,9.952l0.086,51.577H223.706"/>
		<g>
			<g>
				<path style="fill:#FFFFFF;" d="M159.228,322.24c0,0.402-0.174,0.765-0.456,1.015c-0.244,0.212-0.554,0.342-0.901,0.342H36.957
					l0.011-2.714h120.903c0.488,0,0.912,0.255,1.151,0.641C159.152,321.735,159.228,321.979,159.228,322.24z"/>
			</g>
			<polygon style="fill:#263238;" points="58.323,320.883 58.323,323.597 36.957,323.597 36.968,320.883 			"/>
			<path style="fill:#263238;" d="M159.228,322.24c0,0.402-0.174,0.765-0.456,1.015c-0.244,0.212-0.554,0.342-0.901,0.342h-29.323
				v-2.714h29.323c0.488,0,0.912,0.255,1.151,0.641C159.152,321.735,159.228,321.979,159.228,322.24z"/>
		</g>
		<path style="fill:#263238;" d="M440.73,360.009v0.543c0,2.763-2.242,5.005-5.005,5.005H38.532c-2.768,0-5.01-2.242-5.01-5.005
			v-0.543c0-2.763,2.242-5.005,5.01-5.005h397.194C438.489,355.004,440.73,357.246,440.73,360.009z"/>
		<rect x="67.41" y="359.107" width="59.202" height="2.891"/>
		<path style="fill:#FFFFFF;" d="M51.66,360.552c0,0.911-0.739,1.65-1.65,1.65c-0.911,0-1.65-0.739-1.65-1.65
			c0-0.911,0.739-1.65,1.65-1.65C50.921,358.902,51.66,359.641,51.66,360.552z"/>
		<path style="fill:#FFFFFF;" d="M140.754,360.552c0,0.911-0.739,1.65-1.65,1.65c-0.911,0-1.65-0.739-1.65-1.65
			c0-0.911,0.739-1.65,1.65-1.65C140.015,358.902,140.754,359.641,140.754,360.552z"/>
		<g>
			<path d="M190.589,376.928c0-15.909,7.211-28.807,16.108-28.807h-17.084c-8.898,0-16.108,12.898-16.108,28.807
				c0,15.909,7.211,28.8,16.108,28.8h17.084C197.8,405.756,190.589,392.865,190.589,376.928z"/>
			<path style="opacity:0.7;fill:#263238;enable-background:new    ;" d="M190.589,376.928c0-15.909,7.211-28.807,16.108-28.807
				h-17.084c-8.898,0-16.108,12.898-16.108,28.807c0,15.909,7.211,28.8,16.108,28.8h17.084
				C197.8,405.756,190.589,392.865,190.589,376.928z"/>
			<ellipse style="fill:#263238;" cx="206.697" cy="376.956" rx="16.108" ry="28.807"/>
			<ellipse style="fill:#FFFFFF;" cx="207.993" cy="376.956" rx="11.425" ry="22.458"/>
			<ellipse style="fill:#263238;" cx="206.947" cy="376.956" rx="10.926" ry="19.44"/>
			<ellipse cx="204.548" cy="376.956" rx="7.979" ry="14.194"/>
		</g>
		<path style="opacity:0.5;" d="M440.73,360.009v0.543c0,2.763-2.242,5.005-5.005,5.005H233.633v-10.552h202.093
			C438.489,355.004,440.73,357.246,440.73,360.009z"/>
		<g>
			<path d="M357.914,376.928c0-15.909,7.211-28.807,16.108-28.807h-17.083c-8.898,0-16.108,12.898-16.108,28.807
				c0,15.909,7.211,28.8,16.108,28.8h17.083C365.125,405.756,357.914,392.865,357.914,376.928z"/>
			<path style="opacity:0.7;fill:#263238;enable-background:new    ;" d="M357.914,376.928c0-15.909,7.211-28.807,16.108-28.807
				h-17.083c-8.898,0-16.108,12.898-16.108,28.807c0,15.909,7.211,28.8,16.108,28.8h17.083
				C365.125,405.756,357.914,392.865,357.914,376.928z"/>
			<ellipse style="fill:#263238;" cx="374.023" cy="376.956" rx="16.108" ry="28.807"/>
			<ellipse style="fill:#FFFFFF;" cx="375.318" cy="376.956" rx="11.425" ry="22.458"/>
			<ellipse style="fill:#263238;" cx="374.272" cy="376.956" rx="10.926" ry="19.44"/>
			<ellipse cx="371.873" cy="376.956" rx="7.979" ry="14.194"/>
		</g>
	</g>
</g>
<g id="Character_1_">
	<g>
		<path style="fill:#CE7A63;" d="M328.861,235.967c-0.201,3.851-0.555,7.573-1.117,11.36c-0.492,3.915-1.351,7.775-2.565,11.529
			c-0.376,1.096-0.856,2.154-1.431,3.16c-0.394,0.684-0.878,1.311-1.439,1.865l-0.281,0.257l-0.153,0.121l-0.089,0.072l-0.338,0.233
			l-0.667,0.466c-1.7,1.091-3.488,2.038-5.346,2.83c-3.521,1.545-7.179,2.757-10.926,3.618l-1.294-3.562
			c3.176-1.761,6.432-3.562,9.406-5.427c1.453-0.888,2.849-1.865,4.181-2.926l0.434-0.378l0.225-0.185v-0.04l0,0l0,0
			c0,0,0.088-0.153,0.201-0.386c0.286-0.638,0.525-1.297,0.716-1.97c0.456-1.636,0.816-3.298,1.077-4.977
			c0.306-1.736,0.555-3.513,0.764-5.306c0.41-3.57,0.764-7.236,1.037-10.797L328.861,235.967z"/>
		<path style="fill:#CE7A63;" d="M305.578,267.997l-6.142-1.897l1.15,7.429c0,0,4.02-0.499,5.957-2.741L305.578,267.997z"/>
		<path style="fill:#CE7A63;" d="M292.008,270.884l0.338,0.973c0.399,1.133,1.493,1.871,2.693,1.817l3.135-0.145l-1.15-7.429
			l-3.449,1.351C292.217,267.99,291.525,269.504,292.008,270.884z"/>
		<path style="fill:#263238;" d="M336.121,228.788c0,2.324-1.126,6.898-2.082,10.339c-0.707,2.476-1.302,4.357-1.302,4.357
			l-1.407-0.354l-11.617-2.943c-0.185-5.965,0.048-12.526,5.982-16.449C329.432,221.279,336.089,224.655,336.121,228.788z"/>
		<path style="opacity:0.3;enable-background:new    ;" d="M336.105,229.19c-0.756-0.804-2.476-0.941-6.223,0.249
			c-5.37,1.696-6.874,7.581-6.946,11.569l8.393,2.122l0.724,0.185l0.683,0.169c0,0,0.297-0.941,0.716-2.372l0,0
			c0.169-0.587,0.378-1.262,0.579-1.986C334.947,235.879,336.009,231.602,336.105,229.19z"/>
		<polygon style="fill:#CE7A63;" points="312.275,415.469 305.184,412.985 309.638,397.629 316.721,400.121 		"/>
		<polygon style="fill:#CE7A63;" points="406.999,397.275 401.234,401.569 389.424,389.597 395.189,385.296 		"/>
		<path style="fill:#263238;" d="M398.871,399.824l6.231-5.153c0.216-0.191,0.54-0.191,0.756,0l4.784,4.341
			c0.457,0.44,0.471,1.168,0.031,1.626c-0.032,0.034-0.067,0.065-0.103,0.095c-2.203,1.761-3.361,2.5-6.094,4.76
			c-1.688,1.391-5.21,4.719-7.541,6.641c-2.332,1.922-4.358-0.273-3.553-1.286c3.57-4.518,4.398-7.493,4.824-9.937
			C398.292,400.48,398.528,400.096,398.871,399.824z"/>
		<path style="fill:#263238;" d="M304.702,410.774l7.879,3.288c0.286,0.128,0.456,0.428,0.418,0.74l-0.892,6.946
			c-0.071,0.582-0.6,0.996-1.181,0.926c-0.103-0.013-0.203-0.04-0.298-0.081c-2.79-1.134-4.1-1.696-7.557-3.143l-10.621-4.422
			c-2.878-1.206-2.259-4.365-0.957-4.132c5.829,1.053,9.583,0.707,11.883-0.161C303.806,410.574,304.282,410.588,304.702,410.774z"
			/>
		<polygon style="opacity:0.2;enable-background:new    ;" points="309.638,397.637 307.347,405.548 314.245,408.668 
			316.729,400.121 		"/>
		<polygon style="opacity:0.2;enable-background:new    ;" points="395.197,385.296 389.424,389.597 395.51,395.772 
			401.283,391.471 		"/>
		<path style="fill:#263238;" d="M357.925,266.333l-29.208,0.418c-4.02-22.608-4.944-33.405-4.944-38.59
			c-0.008-2.668,1.877-4.967,4.494-5.483c1.785-0.346,4.02-0.748,6.231-1.053c0.764-0.105,1.535-0.201,2.291-0.281
			c4.409-0.382,8.839-0.447,13.257-0.193c0.659,0,1.31,0.056,1.962,0.096c2.959,0.193,5.74,0.571,7.694,0.876
			c1.46,0.232,2.456,1.604,2.223,3.064c-0.008,0.051-0.018,0.101-0.029,0.151c-0.852,4.02-1.552,7.549-2.114,10.709
			c-0.892,5.025-1.455,9.085-1.785,12.646C357.502,254.562,357.478,260.461,357.925,266.333z"/>
		<path style="opacity:0.1;enable-background:new    ;" d="M357.997,248.718c-1.471-4.406-1.391-13.555,0.193-16.522l1.608,3.875
			C358.889,241.096,358.327,245.157,357.997,248.718z"/>
		<path style="fill:#407BFF;" d="M328.717,266.751c0,0-4.944,42.514-9.503,68.98c-3.57,20.734-12.59,63.907-12.59,63.907
			l11.706,4.148c0,0,13.41-45.022,15.758-64.221c9.455-27.705,16.248-73.048,16.248-73.048L328.717,266.751z"/>
		<polygon style="fill:#263238;" points="304.718,402.557 318.273,407.333 320.082,402.983 305.385,397.364 		"/>
		<path style="opacity:0.1;enable-background:new    ;" d="M343.518,279.382l-4.374,8.385c-1.608,6.319-1.222,21.707,0.804,31.427
			c3.642-14.656,6.552-30.077,8.361-40.423L343.518,279.382z"/>
		<path style="fill:#407BFF;" d="M335.06,266.751c0,0,5.234,47.579,15.002,73.965c4.896,13.257,41.243,52.531,41.243,52.531
			l8.201-6.56c0,0-23.05-39.628-33.124-49.983c-4.108-23.018,1.053-57.484-8.49-70.387L335.06,266.751z"/>
		<polygon style="fill:#263238;" points="392.005,396.094 401.62,388.207 399.024,383.945 388.492,393.111 		"/>
		<path style="fill:#263238;" d="M358.375,264.621l1.351,2.589c0.105,0.201-0.129,0.418-0.466,0.418l-30.639,0.442
			c-0.265,0-0.482-0.129-0.507-0.289l-0.297-2.613c0-0.177,0.209-0.338,0.49-0.338l29.586-0.426
			C358.08,264.387,358.263,264.469,358.375,264.621z"/>
		<path style="fill:#407BFF;" d="M354.411,267.981h0.804c0.153,0,0.273-0.088,0.265-0.185l-0.426-3.393
			c0-0.104-0.145-0.177-0.306-0.177h-0.804c-0.153,0-0.273,0.088-0.257,0.185l0.418,3.393
			C354.114,267.901,354.259,267.981,354.411,267.981z"/>
		<path style="fill:#407BFF;" d="M330.815,268.319h0.804c0.161,0,0.273-0.088,0.265-0.185l-0.418-3.393
			c0-0.105-0.153-0.185-0.314-0.177h-0.804c-0.161,0-0.281,0.088-0.265,0.185l0.418,3.393
			C330.517,268.238,330.662,268.319,330.815,268.319z"/>
		<path style="fill:#407BFF;" d="M342.617,268.126h0.804c0.161,0,0.281-0.088,0.265-0.185l-0.418-3.393
			c0-0.105-0.153-0.185-0.306-0.177h-0.804c-0.161,0-0.273,0.088-0.265,0.185l0.418,3.393
			C342.296,268.07,342.456,268.126,342.617,268.126z"/>
		<polygon style="fill:#407BFF;" points="289.636,236.823 332.978,230.87 338.982,273.416 296.419,279.262 		"/>
		<polygon style="opacity:0.8;fill:#FFFFFF;enable-background:new    ;" points="289.636,236.823 332.978,230.87 338.982,273.416 
			296.419,279.262 		"/>
		
			<rect x="324.28" y="230.888" transform="matrix(0.9907 -0.1361 0.1361 0.9907 -31.3627 47.2731)" style="opacity:0.2;fill:#407BFF;enable-background:new    ;" width="11.69" height="44.339"/>
		<path style="fill:#CE7A63;" d="M345.27,268.062l-5.982-2.348l0.587,7.493c0,0,4.02-0.193,6.15-2.291L345.27,268.062z"/>
		<path style="fill:#CE7A63;" d="M364.139,230.717c1.608,4.502,2.991,8.972,4.181,13.603c0.595,2.307,1.158,4.631,1.608,7.043
			c0.217,1.198,0.41,2.412,0.555,3.682c0.159,1.334,0.216,2.678,0.169,4.02c-0.027,0.871-0.162,1.735-0.402,2.573
			c-0.327,1.031-0.876,1.978-1.608,2.774c-1.072,1.144-2.344,2.082-3.755,2.766c-2.306,1.121-4.734,1.971-7.236,2.532
			c-4.68,1.086-9.453,1.724-14.254,1.905l-0.466-3.763c2.187-0.523,4.43-1.102,6.609-1.712s4.349-1.286,6.432-2.05
			c1.987-0.68,3.902-1.555,5.716-2.613c0.66-0.386,1.25-0.881,1.745-1.463c0.129-0.201,0.129-0.257,0.104-0.257
			c0.021-0.294,0.021-0.59,0-0.884c-0.036-0.97-0.138-1.938-0.306-2.894c-0.161-1.045-0.378-2.114-0.619-3.216
			c-0.507-2.147-1.061-4.333-1.688-6.52c-1.254-4.341-2.661-8.755-4.076-13.04L364.139,230.717z"/>
		<path style="fill:#CE7A63;" d="M333.741,269.412l0.466,1.737c0.305,1.133,1.319,1.931,2.492,1.962l3.216,0.089l-0.587-7.493
			l-3.28,0.378c-1.462,0.147-2.529,1.451-2.383,2.913C333.68,269.137,333.705,269.276,333.741,269.412z"/>
		<path style="fill:#263238;" d="M360.731,222.34c3.361,1.367,6.11,12.413,6.11,12.413l-9.286,7.236c0,0-6.577-10.299-5.234-14.769
			C353.463,223.449,356.453,220.611,360.731,222.34z"/>
		<path style="fill:#263238;" d="M396.596,402.943h-0.121c-0.342-0.019-0.648-0.218-0.804-0.523
			c-0.12-0.173-0.139-0.397-0.048-0.587c0.41-0.804,2.991-1.125,3.28-1.158c0.07-0.011,0.138,0.025,0.169,0.088
			c0.037,0.056,0.037,0.129,0,0.185C398.525,401.681,397.48,402.879,396.596,402.943z M398.549,401.07
			c-1.029,0.153-2.412,0.482-2.605,0.917c-0.049,0.079-0.049,0.179,0,0.257c0.095,0.206,0.296,0.342,0.523,0.354
			c0.498,0.024,1.302-0.539,2.106-1.527H398.549z"/>
		<path style="fill:#263238;" d="M398.782,401.038c-0.876,0.056-2.613-0.306-2.983-0.981c-0.13-0.248-0.069-0.552,0.145-0.732
			c0.18-0.193,0.436-0.296,0.699-0.281c1.045,0,2.372,1.608,2.412,1.696c0.033,0.049,0.033,0.112,0,0.161
			c-0.016,0.06-0.067,0.105-0.129,0.113L398.782,401.038z M396.563,399.382c-0.141,0.012-0.272,0.075-0.37,0.177
			c-0.153,0.161-0.129,0.265-0.089,0.338c0.233,0.442,1.608,0.804,2.484,0.804c-0.474-0.507-1.335-1.302-1.954-1.327
			L396.563,399.382z"/>
		<path style="fill:#263238;" d="M300.666,410.613c-0.55-0.183-1.032-0.528-1.383-0.989c-0.167-0.28-0.197-0.62-0.08-0.925
			c0.054-0.175,0.199-0.307,0.378-0.346c0.917-0.177,3.087,2.155,3.513,2.629c0.04,0.058,0.04,0.135,0,0.193
			c-0.037,0.066-0.111,0.101-0.185,0.089C302.142,411.121,301.391,410.903,300.666,410.613z M299.983,408.732
			c-0.104-0.052-0.221-0.074-0.338-0.064c0,0-0.088,0-0.12,0.121c-0.083,0.211-0.062,0.449,0.056,0.643
			c0.314,0.539,1.383,1.045,2.902,1.375C301.76,409.992,300.917,409.293,299.983,408.732z"/>
		<path style="fill:#263238;" d="M302.901,411.232c-0.022-0.009-0.041-0.022-0.056-0.04c-0.74-0.732-1.929-2.918-1.52-3.618
			c0.097-0.153,0.29-0.314,0.716-0.193c1.608,0.466,1.117,3.586,1.093,3.722c-0.009,0.064-0.057,0.116-0.121,0.129
			C302.978,411.248,302.937,411.248,302.901,411.232z M302.097,407.743h-0.113c-0.169-0.048-0.281-0.04-0.322,0
			c-0.241,0.41,0.523,2.058,1.222,2.934C302.901,409.906,302.998,408.137,302.097,407.743z"/>
		<g>
			<path style="fill:#263238;" d="M333.076,191.234c0,0-3.995,6.691-1.009,9.619c2.985,2.929,3.888-7.462,3.888-7.462
				L333.076,191.234z"/>
			<path style="fill:#263238;" d="M351.66,206.927c0,0,4.965-7.819,2.916-15.589c-2.049-7.77-11.8-2.747-15.891-4.874
				c-1.516-0.788-3.105-1.789-4.776-2.218c-0.499-0.128-1.186-0.085-1.585,0.277c-0.968,0.88,0.739,2.526,1.278,3.148
				c-0.33-0.38-0.721-0.746-1.142-1.023c-0.527-0.347-1.245-0.38-1.007,0.516c0.242,0.909,1.284,1.752,2.075,2.195
				c-0.385-0.215-2.701-1.391-2.86-0.66c-0.037,0.172,0.046,0.344,0.128,0.499c1.503,2.803,4.522,6.32,7.983,6.39
				C343.009,195.672,347.042,207.463,351.66,206.927z"/>
			<path style="fill:#CE7A63;" d="M353.427,207.284c-0.257,2.637-4.181,2.669-4.181,2.669c-0.812,2.275-3.071,3.714-3.071,3.714
				c-0.129,1.045-0.051,3.974,0.167,4.778c0.659,2.492,1.5,3.355,2.545,3.918l0,0l-0.838,0.823
				c-1.455,0.812-3.304,1.479-5.274,1.471l-1.101-0.634l-1.439,0.224c-3.98-1.302-2.983-4.015-2.983-4.015
				c1.182-3.407,0.105-5.713,0.105-5.713c-3.835-1.198-5.403-4.534-5.949-10.162c-0.547-5.628,2.621-10.966,2.621-10.966
				c4.342,4.189,12.944,1.503,12.944,1.503c-0.37,7.879,3.312,10.789,3.312,10.789C351.474,204.59,353.685,204.655,353.427,207.284z
				"/>
			<g>
				<path style="fill:#263238;" d="M339.47,207.968c0.769-0.193,1.683-0.687,2.505-1.841c0.103-0.145,0.069-0.347-0.076-0.451
					c-0.146-0.104-0.347-0.069-0.451,0.076c-1.548,2.175-3.427,1.622-3.506,1.597c-0.169-0.054-0.351,0.041-0.405,0.211
					s0.039,0.35,0.208,0.405C337.799,207.983,338.524,208.205,339.47,207.968z"/>
			</g>
			<path style="fill:#263238;" d="M340.609,201.116c0.039,0.514-0.204,0.952-0.542,0.978s-0.644-0.371-0.682-0.885
				c-0.039-0.514,0.204-0.952,0.542-0.977S340.57,200.602,340.609,201.116z"/>
			<path style="fill:#263238;" d="M334.495,200.856c0.039,0.514-0.204,0.952-0.542,0.977c-0.338,0.026-0.644-0.371-0.682-0.885
				c-0.039-0.514,0.204-0.952,0.542-0.978C334.15,199.945,334.456,200.342,334.495,200.856z"/>
			<path style="fill:#BA4D3C;" d="M336.111,205.813l-0.07-3.707l-1.841,3.12C334.2,205.225,334.877,205.956,336.111,205.813z"/>
			<g>
				<path style="fill:#263238;" d="M343.401,198.016c0.042-0.01,0.083-0.027,0.121-0.051c0.203-0.125,0.266-0.39,0.141-0.593
					c-1.186-1.924-3.187-1.695-3.271-1.684c-0.242,0.033-0.403,0.246-0.373,0.482c0.03,0.235,0.244,0.402,0.479,0.374l0,0
					c0.062-0.007,1.543-0.161,2.432,1.281C343.031,197.988,343.224,198.06,343.401,198.016z"/>
			</g>
			<g>
				<path style="fill:#263238;" d="M332.553,197.59c0.109-0.027,0.208-0.097,0.269-0.203c0.528-0.916,1.633-0.731,1.68-0.722
					c0.233,0.041,0.457-0.113,0.5-0.346c0.043-0.233-0.11-0.457-0.343-0.501c-0.071-0.013-1.749-0.309-2.583,1.139
					c-0.119,0.206-0.048,0.47,0.158,0.589C332.334,197.603,332.449,197.616,332.553,197.59z"/>
			</g>
		</g>
		<polygon style="fill:#FFFFFF;" points="350.517,222.705 348.371,224.811 344.544,228.566 343.097,226.283 341.674,224.024 
			346.666,218.058 350.308,222.456 		"/>
		<polygon style="fill:#FFFFFF;" points="341.674,224.024 340.556,225.873 338.932,228.566 335.194,221.821 337.581,219.007 		"/>
	</g>
</g>
</svg>
